# xmcd
#
# Track frame offsets:
#	150
#	13500
#	25857
#	34047
#	51070
#	71490
#	83890
#	98695
#	111767
#	127717
#	138932
#	151337
#	164567
#	174562
#	185497
#	197242
#
# Disc length: 2779 seconds
#
# Revision: 0
# Processed by: cddbd v1.5.2PL0 Copyright (c) Steve Scherf et al.
# Submitted via: dBpowerAMP V4.0
#
DISCID=c90ad910
DTITLE=Country Road - Country Road - CD4
DYEAR=1900
DGENRE=Country
TTITLE0=Don Williams - Ruby Tuesday
TTITLE1=Federation - Talk Dirty
TTITLE2=Jim Reeves - Sweet evening breeze
TTITLE3=Lynn Anderson - Blue bayou
TTITLE4=Federation - Who's on the other line
TTITLE5=Kenny Rogers - Ruben James
TTITLE6=Rick Nelson - Milk cow blues
TTITLE7=Dolly Parton - Little Blossom
TTITLE8=Tina Turnez - Lay it down
TTITLE9=Jim Reeves - Just call me lonesome
TTITLE10=Tina Turner - If its alright with you
TTITLE11=Lynn Anderson - Rose Garden
TTITLE12=Willie Nelson - I don't sleep a wink
TTITLE13=Dolly Parton - Honk tonk angels
TTITLE14=Waylon Jennings - Crying
TTITLE15=Razy Bailey - 9 999 999 tears
EXTD=
EXTT0=
EXTT1=
EXTT2=
EXTT3=
EXTT4=
EXTT5=
EXTT6=
EXTT7=
EXTT8=
EXTT9=
EXTT10=
EXTT11=
EXTT12=
EXTT13=
EXTT14=
EXTT15=
PLAYORDER=
